<svg xmlns="http://www.w3.org/2000/svg" width="996.115" height="105.515" viewBox="0 0 263.556 27.917"><defs><linearGradient id="a" x1="220.28" x2="344.507" y1="336.843" y2="336.843" gradientTransform="rotate(-.55 8502.992 14766.354)scale(.2646)" gradientUnits="userSpaceOnUse"><stop offset=".172" style="stop-color:#1d75bc"/><stop offset=".797" style="stop-color:#27a9e1"/></linearGradient><linearGradient id="b" x1="188.67" x2="372.227" y1="364.956" y2="364.956" gradientTransform="translate(-140.631 80.572)scale(.26458)" gradientUnits="userSpaceOnUse"><stop offset=".092" style="stop-color:#2b3990"/><stop offset=".687" style="stop-color:#1d75bc"/></linearGradient></defs><path d="M-49.352 170.557s-15.537-1.184-32.817 5.705c0 0 9.907-11.91 26.487-10.97 3.518.2 6.33 5.265 6.33 5.265" style="fill:url(#a);stroke-width:.26458332" transform="translate(91.712 -159.821)"/><path d="M-60.32 164.058c-3.934-7.518-10.756-.215-14.3 4.515 3.691-2.126 8.502-4.039 14.3-4.515" style="fill:#50a947;stroke-width:.26458332" transform="translate(91.712 -159.821)"/><path d="M-90.712 182.564h35.29s10.24.794 13.276-10.81c0 0-32.77-1.565-48.566 10.81" style="fill:url(#b);stroke-width:.26458332" transform="translate(91.712 -159.821)"/><path d="m-26.169 168.95-.253 1.438c-.039.195-.194.351-.389.351h-.039a38 38 0 0 0-3.815-.195c-1.07 0-2.296.332-2.296 1.635 0 .506.33.876 1.304 1.48l2.102 1.304c1.576.973 2.064 2.219 2.064 3.329 0 3.406-2.688 4.709-5.88 4.709-1.458 0-2.492-.136-3.386-.35-.155-.039-.311-.156-.311-.33v-.06l.253-1.4c.039-.195.214-.371.427-.371h.04c.778.097 2.704.196 3.425.196 1.363 0 2.57-.469 2.57-2.025 0-.507-.312-.954-1.324-1.634l-2.297-1.54a3.76 3.76 0 0 1-1.714-3.151c0-3.27 2.784-4.107 5.548-4.107 1.284 0 3.037.194 3.679.35.155.039.291.156.291.312zM-15.734 172.763l-1.693 9.693a.5.5 0 0 1-.468.389h-1.555c-.215 0-.313-.136-.313-.33v-.06l.078-.563c-1.09.836-2.062 1.108-3.018 1.108-1.788 0-3.19-1.206-3.19-3.522 0-.35.018-.779.096-1.168 0 0 .156-.974.292-1.693.546-3.037 2.394-4.885 5.529-4.885 1.245 0 2.666.194 3.814.505.292.078.447.136.447.37 0 .058 0 .097-.02.156m-4.614 1.072c-1.672 0-2.315 1.186-2.588 2.783l-.35 2.004a4 4 0 0 0-.078.799c0 1.108.584 1.478 1.345 1.478.738 0 1.555-.312 2.431-.817l1.071-6.111c-.35-.078-1.13-.136-1.83-.136M-4.988 176.091l-1.109 6.345c-.038.214-.252.409-.466.409h-1.792a.317.317 0 0 1-.33-.33c0-.02.02-.06.02-.079l1.107-6.345c.078-.487.137-.856.137-1.168 0-.758-.331-1.01-1.4-1.01-.663 0-1.422.271-2.317.7l-1.383 7.823c-.039.214-.252.409-.466.409h-1.79a.317.317 0 0 1-.332-.33c0-.02.02-.06.02-.079l1.79-10.179a.476.476 0 0 1 .448-.389h1.694c.195 0 .33.156.33.33v.059l-.077.408c1.246-.72 2.083-.933 3.23-.933 2.122 0 2.823 1.264 2.823 2.92 0 .446-.039.933-.137 1.44M10.08 168.91l-.214 1.245a.5.5 0 0 1-.468.389H5.43c-1.13 0-1.597.39-1.83 1.674l-.37 2.103h5.274c.195 0 .33.136.33.33v.059l-.252 1.4a.5.5 0 0 1-.467.391H2.84l-1.032 5.955a.5.5 0 0 1-.467.389H-.567c-.194 0-.311-.136-.311-.311v-.078l1.791-10.238c.584-3.307 2.298-3.99 5.197-3.99 2.317 0 3.055.176 3.66.272.233.04.33.098.33.273 0 .039-.02.079-.02.137M17.596 172.121l-.253 1.401a.48.48 0 0 1-.448.39c-.622 0-1.478.039-2.803.7l-1.381 7.824c-.04.214-.253.409-.467.409h-1.79c-.196 0-.312-.156-.312-.33v-.079l1.79-10.179a.476.476 0 0 1 .448-.389h1.693c.195 0 .33.136.33.33v.059l-.077.408c1.11-.855 2.141-.933 2.96-.933.194 0 .31.136.31.311zM27.563 172.763l-1.694 9.693a.5.5 0 0 1-.467.389h-1.558c-.214 0-.311-.136-.311-.33v-.06l.077-.563c-1.088.836-2.063 1.108-3.016 1.108-1.791 0-3.192-1.206-3.192-3.522 0-.35.02-.779.097-1.168 0 0 .157-.974.293-1.693.544-3.037 2.394-4.885 5.527-4.885 1.246 0 2.666.194 3.815.505.292.078.448.136.448.37 0 .058 0 .097-.02.156m-4.613 1.072c-1.675 0-2.317 1.186-2.589 2.783l-.35 2.004a4 4 0 0 0-.079.799c0 1.108.585 1.478 1.343 1.478.74 0 1.558-.312 2.433-.817l1.07-6.111c-.35-.078-1.128-.136-1.828-.136M38.309 176.091l-1.11 6.345c-.039.214-.254.409-.468.409h-1.79a.317.317 0 0 1-.332-.33c0-.02.02-.06.02-.079l1.11-6.345c.078-.487.137-.856.137-1.168 0-.758-.33-1.01-1.403-1.01-.661 0-1.419.271-2.315.7l-1.382 7.823c-.038.214-.252.409-.466.409h-1.792a.317.317 0 0 1-.33-.33c0-.02.02-.06.02-.079l1.79-10.179a.476.476 0 0 1 .448-.389h1.691c.196 0 .333.156.333.33v.059l-.078.408c1.245-.72 2.081-.933 3.231-.933 2.12 0 2.822 1.264 2.822 2.92 0 .446-.04.933-.136 1.44M48.549 172.49l-.235 1.266c-.038.195-.214.293-.388.293h-.059c-.623-.078-1.226-.136-2.49-.136-.916 0-1.947.524-2.318 2.55l-.33 1.809c-.077.37-.097.7-.097.973 0 1.322.72 1.576 1.518 1.576 1.265 0 1.85-.058 2.55-.136h.058c.155 0 .291.078.291.233v.059l-.233 1.265c-.058.311-.136.427-.486.505-.467.117-1.362.253-2.55.253-2.219 0-3.717-1.516-3.717-3.736 0-.31.038-.643.097-.992l.33-1.81c.682-3.68 2.746-4.73 5.276-4.73 1.186 0 2.023.136 2.451.253.254.059.351.136.351.33 0 .04 0 .117-.019.175M53.26 172.257l-1.789 10.18c-.039.213-.254.408-.468.408h-1.79c-.194 0-.311-.156-.311-.33v-.079l1.79-10.179a.476.476 0 0 1 .447-.389h1.791c.194 0 .33.136.33.33zm.76-3.95-.312 1.711a.475.475 0 0 1-.447.39h-1.888c-.195 0-.35-.137-.35-.331v-.059l.312-1.712a.5.5 0 0 1 .467-.39h1.887c.196 0 .332.136.332.332zM62.818 172.587l-.194 1.11c-.04.235-.175.37-.37.37h-.077c-.527-.077-1.967-.232-3.076-.232-.603 0-1.499.077-1.499.894 0 .272.195.525.584.797l2.277 1.558c1.168.797 1.44 1.596 1.44 2.452 0 2.433-1.985 3.464-4.301 3.464-.643 0-2.316-.058-3.504-.389q-.291-.087-.291-.35v-.097l.214-1.168c.038-.194.213-.311.408-.311h.058c.915.116 2.53.214 3.115.214.954 0 1.674-.175 1.674-1.09 0-.311-.176-.603-.642-.933l-2.375-1.636c-.74-.506-1.265-1.382-1.265-2.317 0-2.569 2.238-3.19 4.106-3.19 1.168 0 2.375.135 3.446.407.194.059.272.175.272.35v.098M72.396 172.49l-.233 1.266c-.04.195-.214.293-.39.293h-.058c-.623-.078-1.225-.136-2.49-.136-.916 0-1.947.524-2.317 2.55l-.332 1.809a4.7 4.7 0 0 0-.097.973c0 1.322.72 1.576 1.52 1.576 1.264 0 1.847-.058 2.549-.136h.058c.156 0 .292.078.292.233v.059l-.234 1.265c-.058.311-.135.427-.487.505-.467.117-1.362.253-2.55.253-2.217 0-3.717-1.516-3.717-3.736 0-.31.038-.643.097-.992l.332-1.81c.68-3.68 2.744-4.73 5.274-4.73 1.188 0 2.025.136 2.453.253.252.059.35.136.35.33 0 .04 0 .117-.02.175M82.4 176.579l-.291 1.575c-.605 3.213-2.433 4.846-5.49 4.846-2.647 0-3.892-1.868-3.892-3.91 0-.313.019-.624.077-.936l.293-1.575c.583-3.193 2.453-4.847 5.508-4.847 2.666 0 3.892 1.79 3.892 3.833 0 .332-.038.682-.097 1.014m-4.184-2.628c-1.187 0-2.2.7-2.55 2.628l-.292 1.575a4.7 4.7 0 0 0-.078.858c0 1.147.565 1.77 1.714 1.77 1.362 0 2.2-.818 2.53-2.628l.291-1.576c.059-.312.078-.604.078-.856 0-1.148-.544-1.77-1.693-1.77M98.579 172.18l-.078.388c-.332 1.617-1.187 2.492-2.316 2.939.973.448 1.42 1.441 1.42 2.413 0 .175 0 .371-.038.546l-.059.33C96.964 181.853 94.9 183 90.852 183c-1.577 0-2.745-.097-3.328-.214-.525-.097-.8-.272-.8-.739 0-.097.02-.194.04-.31l2.16-12.263c.117-.701.428-.954 1.071-1.051.525-.078 1.751-.195 3.27-.195 3.367 0 5.391 1.09 5.391 3.193 0 .234-.02.486-.077.758zm-5.704 4.263h-2.472l-.758 4.281c.467 0 1.188.04 1.596.04 2.491 0 3.406-.644 3.62-2.006l.039-.253c.02-.156.039-.311.039-.449 0-.894-.487-1.613-2.064-1.613m0-5.977c-.466 0-1.012.02-1.42.039l-.7 3.952h2.472c1.81 0 2.51-.857 2.647-1.85l.038-.272a3 3 0 0 0 .04-.389c0-1.07-.838-1.48-3.077-1.48M109.383 172.763l-1.693 9.693a.496.496 0 0 1-.466.389h-1.559c-.214 0-.31-.136-.31-.33v-.06l.077-.563c-1.09.836-2.062 1.108-3.016 1.108-1.791 0-3.193-1.206-3.193-3.522 0-.35.02-.779.097-1.168 0 0 .156-.974.292-1.693.546-3.037 2.395-4.885 5.529-4.885 1.246 0 2.666.194 3.815.505.291.078.447.136.447.37 0 .058 0 .097-.02.156m-4.612 1.072c-1.675 0-2.316 1.186-2.588 2.783l-.352 2.004a4 4 0 0 0-.077.799c0 1.108.584 1.478 1.342 1.478.74 0 1.559-.312 2.433-.817l1.07-6.111c-.35-.078-1.128-.136-1.828-.136M120.929 172.315l-5.255 11.367c-.974 2.122-1.85 3.056-4.497 3.056-.643 0-1.595-.116-2.025-.252-.194-.058-.35-.117-.35-.274v-.058l.215-1.246c.039-.214.233-.35.448-.35h.039c.545.02 1.635.117 2.179.117.837 0 1.246-.233 1.694-1.246l.253-.584h-.214c-.566 0-1.227-.117-1.402-1.615l-.993-8.915v-.058c0-.233.137-.389.428-.389h1.89c.174 0 .29.175.31.35l.583 7.921c.02.33.08.428.196.428h.175l3.562-8.369c.078-.174.253-.33.447-.33h2.063c.176 0 .293.117.293.272 0 .059-.02.117-.04.175M134.946 168.91l-.213 1.245a.5.5 0 0 1-.469.389h-3.97c-1.13 0-1.596.39-1.829 1.674l-.37 2.103h5.275c.195 0 .33.136.33.33v.059l-.252 1.4a.496.496 0 0 1-.468.391h-5.275l-1.031 5.955a.5.5 0 0 1-.467.389h-1.908c-.194 0-.311-.136-.311-.311v-.078l1.791-10.238c.583-3.307 2.297-3.99 5.197-3.99 2.316 0 3.055.176 3.659.272.234.04.33.098.33.273 0 .039-.019.079-.019.137M144.074 176.831l-.155.934c-.058.31-.195.487-.467.487h-6.346c-.039.272-.097.525-.097.798 0 1.05.545 1.752 1.986 1.752 1.42 0 2.763-.136 3.6-.215h.078c.156 0 .292.038.292.215v.078l-.233 1.284c-.059.311-.117.447-.487.505-1.303.234-2.16.33-3.913.33-1.731 0-3.834-.971-3.834-3.91 0-.351.02-.759.097-1.169l.215-1.205c.642-3.641 2.57-4.983 5.547-4.983 2.588 0 3.815 1.712 3.815 3.99 0 .35-.04.74-.097 1.11m-4.106-2.88c-1.557 0-2.277 1.05-2.53 2.472h4.126c.038-.254.078-.487.078-.74 0-1.129-.603-1.732-1.674-1.732M152.758 172.121l-.253 1.401a.48.48 0 0 1-.447.39c-.623 0-1.48.039-2.804.7l-1.382 7.824c-.038.214-.252.409-.466.409h-1.792c-.194 0-.31-.156-.31-.33v-.079l1.79-10.179a.475.475 0 0 1 .448-.389h1.692c.195 0 .332.136.332.33v.059l-.079.408c1.11-.855 2.141-.933 2.96-.933.194 0 .31.136.31.311zM160.058 172.121l-.252 1.401a.48.48 0 0 1-.449.39c-.622 0-1.479.039-2.802.7l-1.382 7.824c-.039.214-.253.409-.467.409h-1.791c-.195 0-.311-.156-.311-.33v-.079l1.791-10.179a.476.476 0 0 1 .447-.389h1.693c.194 0 .33.136.33.33v.059l-.078.408c1.11-.855 2.142-.933 2.96-.933.194 0 .311.136.311.311zM170.804 172.315l-5.255 11.367c-.973 2.122-1.85 3.056-4.496 3.056-.643 0-1.596-.116-2.025-.252-.194-.058-.35-.117-.35-.274v-.058l.214-1.246c.04-.214.234-.35.449-.35h.039c.544.02 1.634.117 2.178.117.838 0 1.246-.233 1.694-1.246l.253-.584h-.214c-.565 0-1.226-.117-1.401-1.615l-.993-8.915v-.058c0-.233.136-.389.428-.389h1.888c.175 0 .292.175.312.35l.583 7.921c.02.33.079.428.195.428h.176l3.561-8.369c.079-.174.253-.33.448-.33h2.063c.175 0 .292.117.292.272 0 .059-.02.117-.039.175" style="fill:#878785;stroke-width:.26458332" transform="translate(91.712 -159.821)"/></svg>